<svg id="Layer_1" data-name="Layer 1" xmlns="http://www.w3.org/2000/svg" viewBox="0 0 258.39 44.11"><defs><style>.cls-1{fill:#63a70a;}.cls-2{fill:#fff;}.cls-3{fill:#908f88;}</style></defs><title>logo_g_vida</title><path class="cls-1" d="M399,46.44c-3.25-4-6.5-6-9.64-6h-0.29c-3.15,0-6.39,2-9.64,6A54.46,54.46,0,0,0,372.24,59,36.68,36.68,0,0,0,369.13,70c-0.31,3.68.42,6.58,2.24,8.89,2.7,3.43,7.76,5.18,16,5.53l1.54,0c0.11,0,.22,0,0.32,0h0.08l0.08,0,0.33,0,1.53-.06c8.19-.35,13.26-2.1,16-5.53,1.82-2.31,2.55-5.22,2.24-8.9a36.63,36.63,0,0,0-3.11-11A54.49,54.49,0,0,0,399,46.44" transform="translate(-369.06 -40.41)"/><path class="cls-2" d="M376.41,71c0.48,0.06,7.36,1,11,5.71a11.43,11.43,0,0,1,1.75,4.66h0.14V78.8c-0.15-2.69-.74-6.71-2.21-8.64-3.74-4.87-11-5.72-11-5.72a19.54,19.54,0,0,0,.36,6.56" transform="translate(-369.06 -40.41)"/><path class="cls-2" d="M378.92,62.45c0.39,0,5.93.82,8.83,4.6a9.18,9.18,0,0,1,1.4,3.75h0.11V68.72c-0.12-2.16-.59-5.4-1.78-7-3-3.92-8.85-4.6-8.85-4.6a15.7,15.7,0,0,0,.29,5.28" transform="translate(-369.06 -40.41)"/><path class="cls-2" d="M391.56,70.18c-1.49,1.91-2.11,5.91-2.29,8.6v2.61h0.13a11.47,11.47,0,0,1,1.78-4.65c3.65-4.67,10.42-5.55,10.91-5.6a19.52,19.52,0,0,0,.43-6.56s-7.15.77-10.94,5.6" transform="translate(-369.06 -40.41)"/><path class="cls-2" d="M391.11,61.79c-1.2,1.53-1.7,4.76-1.85,6.92v2.1h0.1a9.24,9.24,0,0,1,1.43-3.74c2.94-3.75,8.39-4.46,8.78-4.51a15.72,15.72,0,0,0,.34-5.28s-5.75.62-8.8,4.51" transform="translate(-369.06 -40.41)"/><path class="cls-2" d="M389.24,45.94s-3.42,3.26-3.4,7.17c0,2.4,2.93,6.6,3.4,6.65s3.45-4.26,3.45-6.65c0-3.92-3.45-7.17-3.45-7.17" transform="translate(-369.06 -40.41)"/><path class="cls-3" d="M435.42,64.95a1.91,1.91,0,0,1-1.8-2V61.35a1.91,1.91,0,0,1,1.8-2H445a1.91,1.91,0,0,1,1.8,2v2.31c0,7.71-4.23,12.17-12.64,12.17h-4.31c-8.3,0-13.11-4.76-13.11-15.17s4.81-15.17,14.17-15.17h4.27c5.32,0,11,3.13,11,7.71a2.07,2.07,0,0,1-2,2.31H442c-1.1,0-1.92-.6-2.58-2s-2.5-2.14-4.85-2.14h-3.4c-5.64,0-7.16,2.27-7.16,9.26s1.53,9.26,6.11,9.26H434c4.31,0,5.71-2,5.75-5h-4.3Z" transform="translate(-369.06 -40.41)"/><path class="cls-3" d="M465.44,56.76A1.21,1.21,0,0,1,464.27,58h-0.63c-0.9,0-1.92-.13-2.93-0.13-2,0-3.52,1.24-4.93,3.09V74.38a1.21,1.21,0,0,1-1.17,1.29h-4.27a1.21,1.21,0,0,1-1.17-1.29V54a1.21,1.21,0,0,1,1.17-1.29h4.27A1.21,1.21,0,0,1,455.77,54v1.33a11.76,11.76,0,0,1,8.49-3,1.21,1.21,0,0,1,1.17,1.29v3.17Z" transform="translate(-369.06 -40.41)"/><path class="cls-3" d="M473.62,66c0,3.56,1.49,5,3.64,5,1.92,0,3.72-1.46,5.13-3V54a1.21,1.21,0,0,1,1.17-1.29h4.27A1.21,1.21,0,0,1,489,54V74.38a1.21,1.21,0,0,1-1.18,1.28h-4.27a1.21,1.21,0,0,1-1.17-1.28V73c-1.8,1.67-3.76,3-6.69,3-5.09,0-8.69-3-8.69-10.07V54a1.21,1.21,0,0,1,1.17-1.29h4.27A1.21,1.21,0,0,1,473.62,54V66Z" transform="translate(-369.06 -40.41)"/><path class="cls-3" d="M514.92,64.18c0,7.89-4.15,11.91-10.25,11.91A15.3,15.3,0,0,1,499.14,75v6.43A1.21,1.21,0,0,1,498,82.73H493.7a1.21,1.21,0,0,1-1.17-1.29V54a1.21,1.21,0,0,1,1.17-1.29h3.68A1.21,1.21,0,0,1,498.56,54v0.64a10.56,10.56,0,0,1,6.69-2.36c5.56,0,9.67,4,9.67,11.87m-15.77-4.93V70.18a14.12,14.12,0,0,0,4.15.86c3.52,0,4.81-2.1,4.81-6.86s-1.29-6.81-4.42-6.81a9.24,9.24,0,0,0-4.54,1.89" transform="translate(-369.06 -40.41)"/><path class="cls-3" d="M539.18,64.18c0,7.89-4.15,11.91-11.55,11.91s-11.55-4-11.55-11.91,4.15-11.87,11.55-11.87,11.55,4,11.55,11.87m-6.61,0c0-5.06-1.61-7.11-4.93-7.11s-4.93,2.06-4.93,7.11,1.6,7.16,4.93,7.16,4.93-2.1,4.93-7.16" transform="translate(-369.06 -40.41)"/><path class="cls-3" d="M553.43,75.66a2.94,2.94,0,0,1-2.74-2.14l-11-26.1a1.3,1.3,0,0,1,1.25-1.76h4.19a2.74,2.74,0,0,1,2.27,2l7.4,18,7.4-18a2.74,2.74,0,0,1,2.27-2h4.19a1.3,1.3,0,0,1,1.25,1.76l-11,26.1a2.94,2.94,0,0,1-2.74,2.14h-2.74Z" transform="translate(-369.06 -40.41)"/><path class="cls-3" d="M571.59,47.64a2.12,2.12,0,0,1,2.19-2.4h2.39a2.12,2.12,0,0,1,2.19,2.4v0.73a2.12,2.12,0,0,1-2.19,2.4h-2.39a2.12,2.12,0,0,1-2.19-2.4V47.64Zm1.25,28a1.21,1.21,0,0,1-1.17-1.29V54.54a1.21,1.21,0,0,1,1.17-1.29h4.27a1.21,1.21,0,0,1,1.17,1.29V74.38a1.21,1.21,0,0,1-1.17,1.29h-4.27Z" transform="translate(-369.06 -40.41)"/><path class="cls-3" d="M580.71,64.22c0-7.88,4.15-11.91,10.26-11.91a15.33,15.33,0,0,1,5.52,1.07V47a1.21,1.21,0,0,1,1.17-1.29h4.27A1.21,1.21,0,0,1,603.1,47V74.38a1.21,1.21,0,0,1-1.18,1.29h-3.68a1.21,1.21,0,0,1-1.17-1.29V73.73a10.56,10.56,0,0,1-6.69,2.36c-5.56,0-9.67-4-9.67-11.87m15.77,4.93V58.22a14.13,14.13,0,0,0-4.15-.86c-3.52,0-4.82,2.1-4.82,6.86S588.81,71,591.94,71a9.24,9.24,0,0,0,4.54-1.89" transform="translate(-369.06 -40.41)"/><path class="cls-3" d="M613.2,58.48A2.6,2.6,0,0,1,611,59.59h-2.86A1.21,1.21,0,0,1,607,58.31c0-4.46,4.07-6,10.41-6,5.64,0,10.06,2.57,10.06,9.13V74.38a1.21,1.21,0,0,1-1.18,1.29h-3.68a1.21,1.21,0,0,1-1.17-1.29V73.73a10.75,10.75,0,0,1-6.93,2.36c-5.13,0-9-2.53-9-7.37s3.91-7.29,9-7.29h6.34c0-3.34-1.29-4.37-3.91-4.37a4.66,4.66,0,0,0-3.72,1.41m7.63,11V66.19H615c-1.84,0-2.9,1.11-2.9,2.53s1.06,2.61,3.09,2.61a10.08,10.08,0,0,0,5.68-1.89" transform="translate(-369.06 -40.41)"/></svg>