<?xml version="1.0" encoding="UTF-8"?>
<svg width="76px" height="76px" viewBox="0 0 76 76" version="1.1" xmlns="http://www.w3.org/2000/svg" xmlns:xlink="http://www.w3.org/1999/xlink">
    <!-- Generator: Sketch 43.2 (39069) - http://www.bohemiancoding.com/sketch -->
    <title>ic_marca</title>
    <desc>Created with Sketch.</desc>
    <defs>
        <polygon id="path-1" points="10.6348 28.7857143 20.779 28.7857143 20.779 0.989785714 0.4906 0.989785714 0.4906 28.7857143 10.6348 28.7857143"></polygon>
        <polygon id="path-3" points="20.28884 0.989785714 0 0.989785714 0 28.7857143 10.14442 28.7857143 20.28884 28.7857143 20.28884 0.989785714"></polygon>
        <polygon id="path-5" points="3.5445071e-20 0.000335305677 3.5445071e-20 14.2714897 9.91996863 14.2714897 9.91996863 0.000335305677 0 0.000335305677"></polygon>
        <polygon id="path-7" points="3.5445071e-20 0.000335305677 3.5445071e-20 14.2714897 9.91996863 14.2714897 9.91996863 0.000335305677 0 0.000335305677"></polygon>
        <polygon id="path-9" points="3.5445071e-20 0.000335305677 3.5445071e-20 14.2714897 9.91996863 14.2714897 9.91996863 0.000335305677 0 0.000335305677"></polygon>
    </defs>
    <g id="Page-1" stroke="none" stroke-width="1" fill="none" fill-rule="evenodd">
        <g id="SECTION:-Valores" transform="translate(-1236.000000, -1174.000000)">
            <g id="ic_marca" transform="translate(1236.000000, 1174.000000)">
                <circle id="Oval-2-Copy" fill="#417505" cx="38" cy="38" r="38"></circle>
                <g id="Group-2" transform="translate(17.000000, 16.000000)">
                    <g id="Group-4">
                        <g id="Page-1" transform="translate(0.000000, 13.000000)">
                            <g id="Group-3" transform="translate(22.000000, 0.224721)">
                                <mask id="mask-2" fill="white">
                                    <use xlink:href="#path-1"></use>
                                </mask>
                                <g id="Clip-2"></g>
                                <path d="M0.4906,28.7857143 L0.8118,21.7730714 C0.8118,21.7730714 1.2716,17.1717857 5.0292,15.6837857 C6.3228,15.1722857 7.7132,14.7537857 8.943,14.0983571 C10.362,13.3388571 11.2024,11.8375714 12.4476,10.8544286 C13.0834,10.3517857 13.9128,9.66092857 14.8016,9.75835714 C15.7872,9.86685714 16.2184,10.6994286 16.1326,11.5785 C16.027,12.6812143 15.3296,13.3322143 14.608,14.1160714 C12.2232,16.7001429 10.6348,18.4981429 10.6348,18.4981429 L10.758,20.3426429 C10.758,20.3426429 16.533,15.3782143 16.9906,13.2857143 C17.2348,12.1741429 17.5868,11.0249286 17.4944,6.54985714 C17.4746,5.57557143 17.4834,5.549 17.4834,3.74878571 C17.4834,-0.1395 20.3082,0.637714286 20.6162,2.6815 C20.6426,2.85642857 20.647,4.02335714 20.658,4.24478571 C20.933,10.2875714 20.658,12.8716429 20.658,12.8716429 C20.658,12.8716429 20.1982,18.1748571 15.158,22.0963571 C13.6554,23.2655 10.2212,25.7632143 9.8186,26.505 C9.383,27.3087857 9.5524,28.7857143 9.383,28.7857143 L0.4906,28.7857143 Z" id="Fill-1" fill="#FFFFFF" mask="url(#mask-2)"></path>
                            </g>
                            <g id="Group-6" transform="translate(0.000000, 0.224721)">
                                <mask id="mask-4" fill="white">
                                    <use xlink:href="#path-3"></use>
                                </mask>
                                <g id="Clip-5"></g>
                                <path d="M20.28884,28.7857143 L19.96764,21.7730714 C19.96764,21.7730714 19.50784,17.1717857 15.75024,15.6837857 C14.45664,15.1722857 13.06624,14.7537857 11.83644,14.0983571 C10.41744,13.3388571 9.57704,11.8375714 8.33184,10.8544286 C7.69604,10.3517857 6.86664,9.66092857 5.97784,9.75835714 C4.99224,9.86685714 4.56104,10.6994286 4.64684,11.5785 C4.75244,12.6812143 5.44984,13.3322143 6.17144,14.1160714 C8.55624,16.7001429 10.14464,18.4981429 10.14464,18.4981429 L10.02144,20.3426429 C10.02144,20.3426429 4.24644,15.3782143 3.78884,13.2857143 C3.54464,12.1741429 3.19264,11.0249286 3.28504,6.54985714 C3.30484,5.57557143 3.29604,5.549 3.29604,3.74878571 C3.29604,-0.1395 0.47124,0.637714286 0.16324,2.6815 C0.13684,2.85642857 0.13244,4.02335714 0.12144,4.24478571 C-0.15356,10.2875714 0.12144,12.8716429 0.12144,12.8716429 C0.12144,12.8716429 0.58124,18.1748571 5.62144,22.0963571 C7.12404,23.2655 10.55824,25.7632143 10.96084,26.505 C11.39644,27.3087857 11.22704,28.7857143 11.39644,28.7857143 L20.28884,28.7857143" id="Fill-4" fill="#FFFFFF" mask="url(#mask-4)"></path>
                            </g>
                        </g>
                        <g id="Group" transform="translate(6.000000, 0.000000)">
                            <g id="Page-1" transform="translate(11.076923, 0.000000)">
                                <mask id="mask-6" fill="white">
                                    <use xlink:href="#path-5"></use>
                                </mask>
                                <g id="Clip-2"></g>
                                <path d="M6.58841538,7.45722756 C6.0078,8.99679006 5.53703077,10.0184483 4.97472308,11.0061455 L4.97472308,11.0033154 C4.96949231,11.0118057 4.96426154,11.0202959 4.95903077,11.0287862 C4.95641538,11.0202959 4.94856923,11.0118057 4.94333846,11.0033154 L4.94333846,11.0061455 C4.38364615,10.0184483 3.88149231,9.03924123 3.33226154,7.45722756 C3.1178,6.84593068 3.2538,5.81578225 3.74287692,5.46485256 C4.45687692,4.95260842 4.83872308,5.56673537 4.94333846,5.76767092 L4.94333846,5.8214424 C4.94595385,5.81578225 4.95641538,5.80163186 4.95903077,5.7959717 C4.96426154,5.80163186 4.97210769,5.81578225 4.97472308,5.8214424 L4.97472308,5.76767092 C5.07933846,5.56673537 5.46118462,4.95260842 6.1778,5.46485256 C6.66687692,5.81578225 6.81595385,6.85159084 6.58841538,7.45722756 M8.51333846,0.455614277 C6.34256923,-0.823581035 5.17872308,0.962198262 4.97472308,1.31595803 L4.97472308,1.31595803 C4.97210769,1.32161818 4.96426154,1.33576857 4.95903077,1.34142873 C4.95641538,1.33576857 4.94856923,1.32161818 4.94333846,1.31595803 L4.94333846,1.31595803 C4.73933846,0.962198262 3.57810769,-0.823581035 1.40733846,0.455614277 C-0.865430769,1.79141115 0.107492308,4.7743135 0.920876923,6.64499514 C2.06903077,9.29111818 3.55195385,11.7617764 4.94333846,14.2720557 C4.94595385,14.2607354 4.9538,14.2437549 4.95903077,14.2296045 C4.96687692,14.2437549 4.97472308,14.2607354 4.97472308,14.2720557 C6.36872308,11.7617764 7.84903077,9.29111818 8.9998,6.64499514 C9.81056923,4.7743135 10.7861077,1.79141115 8.51333846,0.455614277" id="Fill-1" fill="#FFFFFF" mask="url(#mask-6)"></path>
                            </g>
                            <g id="Page-1-Copy" transform="translate(22.713137, 12.399116) rotate(60.000000) translate(-22.713137, -12.399116) translate(17.713137, 4.899116)">
                                <mask id="mask-8" fill="white">
                                    <use xlink:href="#path-7"></use>
                                </mask>
                                <g id="Clip-2"></g>
                                <path d="M6.58841538,7.45722756 C6.0078,8.99679006 5.53703077,10.0184483 4.97472308,11.0061455 L4.97472308,11.0033154 C4.96949231,11.0118057 4.96426154,11.0202959 4.95903077,11.0287862 C4.95641538,11.0202959 4.94856923,11.0118057 4.94333846,11.0033154 L4.94333846,11.0061455 C4.38364615,10.0184483 3.88149231,9.03924123 3.33226154,7.45722756 C3.1178,6.84593068 3.2538,5.81578225 3.74287692,5.46485256 C4.45687692,4.95260842 4.83872308,5.56673537 4.94333846,5.76767092 L4.94333846,5.8214424 C4.94595385,5.81578225 4.95641538,5.80163186 4.95903077,5.7959717 C4.96426154,5.80163186 4.97210769,5.81578225 4.97472308,5.8214424 L4.97472308,5.76767092 C5.07933846,5.56673537 5.46118462,4.95260842 6.1778,5.46485256 C6.66687692,5.81578225 6.81595385,6.85159084 6.58841538,7.45722756 M8.51333846,0.455614277 C6.34256923,-0.823581035 5.17872308,0.962198262 4.97472308,1.31595803 L4.97472308,1.31595803 C4.97210769,1.32161818 4.96426154,1.33576857 4.95903077,1.34142873 C4.95641538,1.33576857 4.94856923,1.32161818 4.94333846,1.31595803 L4.94333846,1.31595803 C4.73933846,0.962198262 3.57810769,-0.823581035 1.40733846,0.455614277 C-0.865430769,1.79141115 0.107492308,4.7743135 0.920876923,6.64499514 C2.06903077,9.29111818 3.55195385,11.7617764 4.94333846,14.2720557 C4.94595385,14.2607354 4.9538,14.2437549 4.95903077,14.2296045 C4.96687692,14.2437549 4.97472308,14.2607354 4.97472308,14.2720557 C6.36872308,11.7617764 7.84903077,9.29111818 8.9998,6.64499514 C9.81056923,4.7743135 10.7861077,1.79141115 8.51333846,0.455614277" id="Fill-1" fill="#FFFFFF" mask="url(#mask-8)"></path>
                            </g>
                            <g id="Page-1-Copy-2" transform="translate(9.286863, 12.399116) scale(-1, 1) rotate(60.000000) translate(-9.286863, -12.399116) translate(4.286863, 4.899116)">
                                <mask id="mask-10" fill="white">
                                    <use xlink:href="#path-9"></use>
                                </mask>
                                <g id="Clip-2"></g>
                                <path d="M6.58841538,7.45722756 C6.0078,8.99679006 5.53703077,10.0184483 4.97472308,11.0061455 L4.97472308,11.0033154 C4.96949231,11.0118057 4.96426154,11.0202959 4.95903077,11.0287862 C4.95641538,11.0202959 4.94856923,11.0118057 4.94333846,11.0033154 L4.94333846,11.0061455 C4.38364615,10.0184483 3.88149231,9.03924123 3.33226154,7.45722756 C3.1178,6.84593068 3.2538,5.81578225 3.74287692,5.46485256 C4.45687692,4.95260842 4.83872308,5.56673537 4.94333846,5.76767092 L4.94333846,5.8214424 C4.94595385,5.81578225 4.95641538,5.80163186 4.95903077,5.7959717 C4.96426154,5.80163186 4.97210769,5.81578225 4.97472308,5.8214424 L4.97472308,5.76767092 C5.07933846,5.56673537 5.46118462,4.95260842 6.1778,5.46485256 C6.66687692,5.81578225 6.81595385,6.85159084 6.58841538,7.45722756 M8.51333846,0.455614277 C6.34256923,-0.823581035 5.17872308,0.962198262 4.97472308,1.31595803 L4.97472308,1.31595803 C4.97210769,1.32161818 4.96426154,1.33576857 4.95903077,1.34142873 C4.95641538,1.33576857 4.94856923,1.32161818 4.94333846,1.31595803 L4.94333846,1.31595803 C4.73933846,0.962198262 3.57810769,-0.823581035 1.40733846,0.455614277 C-0.865430769,1.79141115 0.107492308,4.7743135 0.920876923,6.64499514 C2.06903077,9.29111818 3.55195385,11.7617764 4.94333846,14.2720557 C4.94595385,14.2607354 4.9538,14.2437549 4.95903077,14.2296045 C4.96687692,14.2437549 4.97472308,14.2607354 4.97472308,14.2720557 C6.36872308,11.7617764 7.84903077,9.29111818 8.9998,6.64499514 C9.81056923,4.7743135 10.7861077,1.79141115 8.51333846,0.455614277" id="Fill-1" fill="#FFFFFF" mask="url(#mask-10)"></path>
                            </g>
                        </g>
                    </g>
                </g>
            </g>
        </g>
    </g>
</svg>