<?xml version="1.0" encoding="UTF-8"?>
<svg width="76px" height="76px" viewBox="0 0 76 76" version="1.1" xmlns="http://www.w3.org/2000/svg" xmlns:xlink="http://www.w3.org/1999/xlink">
    <!-- Generator: Sketch 43.2 (39069) - http://www.bohemiancoding.com/sketch -->
    <title>ic_nosotros</title>
    <desc>Created with Sketch.</desc>
    <defs>
        <polygon id="path-1" points="17.2078519 0.811571429 17.2078519 31.1124286 0.0841925926 31.1124286 0.0841925926 0.811571429 17.2078519 0.811571429"></polygon>
        <polygon id="path-3" points="0.243792593 0.335642857 8.2909037 0.335642857 8.2909037 8.44675714 0.243792593 8.44675714 0.243792593 0.335642857"></polygon>
        <polygon id="path-5" points="0 31.1122643 0 0.811407143 17.1743407 0.811407143 17.1743407 31.1122643 8.41395096e-16 31.1122643"></polygon>
        <polygon id="path-7" points="0.0400888889 0.335642857 8.0872 0.335642857 8.0872 8.44675714 0.0400888889 8.44675714 0.0400888889 0.335642857"></polygon>
    </defs>
    <g id="Page-1" stroke="none" stroke-width="1" fill="none" fill-rule="evenodd">
        <g id="SECTION:-Valores" transform="translate(-619.000000, -1174.000000)">
            <g id="ic_nosotros" transform="translate(619.000000, 1174.000000)">
                <circle id="Oval-2" fill="#417505" cx="38" cy="38" r="38"></circle>
                <g id="Page-1" transform="translate(16.000000, 16.000000)">
                    <g id="Group-3" transform="translate(25.444444, 7.522321)">
                        <mask id="mask-2" fill="white">
                            <use xlink:href="#path-1"></use>
                        </mask>
                        <g id="Clip-2"></g>
                        <path d="M16.432637,5.7845 C16.3918963,4.29771429 15.702563,2.47907143 14.4070074,1.66914286 C13.4813778,1.09085714 12.4221185,0.900285714 11.3498222,0.811571429 C10.4958963,1.5755 9.38448889,2.05357143 8.15574815,2.05357143 C6.93352593,2.05357143 5.82863704,1.57878571 4.97634074,0.823071429 C2.5433037,1.173 0.511155556,2.2655 0.0841925926,5.13228571 C0.921822222,5.27357143 1.74967407,5.52657143 2.51234074,6.00135714 C4.11263704,7.00185714 4.87693333,9.12935714 4.92093333,10.7557857 L5.69826667,21.5181429 C5.69826667,22.4135 4.88834074,23.1166429 3.8518963,23.1166429 C3.64982222,23.1166429 3.46078519,23.0755714 3.27826667,23.023 L3.27826667,30.0248571 C3.27826667,30.6458571 3.94804444,31.1124286 4.72211852,31.1124286 L5.03011852,31.1124286 C5.80419259,31.1124286 6.42345185,30.6852857 6.4756,30.1037143 L7.66034074,17.8315714 C7.70271111,17.6442857 7.89500741,17.5112143 8.28774815,17.4586429 C8.51752593,17.5112143 8.70982222,17.6442857 8.75056296,17.8315714 L9.93693333,30.1037143 C9.98745185,30.6852857 10.6067111,31.1124286 11.3807852,31.1124286 L11.6904148,31.1124286 C12.4628593,31.1124286 13.1342667,30.6458571 13.1342667,30.0248571 L13.1342667,8.09435714 C13.1342667,7.86271429 13.3917481,7.66885714 13.7013778,7.66885714 C14.0110074,7.66885714 14.2163407,7.82328571 14.2684889,8.05657143 L15.1452296,16.5649286 C15.1973778,16.9526429 15.6601926,17.2631429 16.1767852,17.2631429 C16.7438963,17.2631429 17.2083407,16.9148571 17.2083407,16.4877143 L16.432637,5.7845" id="Fill-1" fill="#FFFFFF" mask="url(#mask-2)"></path>
                    </g>
                    <g id="Group-6" transform="translate(29.333333, 0.308036)">
                        <mask id="mask-4" fill="white">
                            <use xlink:href="#path-3"></use>
                        </mask>
                        <g id="Clip-5"></g>
                        <path d="M1.76586667,7.54154286 C1.93697778,7.68118571 2.1194963,7.80275714 2.31179259,7.91282857 C2.89357037,8.24304286 3.55357037,8.44675714 4.26734815,8.44675714 C4.95668148,8.44675714 5.59386667,8.25454286 6.16260741,7.94732857 C6.36794074,7.83397143 6.56186667,7.70747143 6.74601481,7.56125714 C6.8992,7.43968571 7.04912593,7.31318571 7.18275556,7.17025714 C7.86557037,6.44247143 8.2909037,5.46825714 8.2909037,4.39054286 C8.2909037,2.15461429 6.4869037,0.334328571 4.26734815,0.334328571 C2.04942222,0.334328571 0.243792593,2.15461429 0.243792593,4.39054286 C0.243792593,5.46332857 0.667496296,6.43261429 1.34379259,7.15875714 C1.47416296,7.2984 1.61757037,7.42161429 1.76586667,7.54154286" id="Fill-4" fill="#FFFFFF" mask="url(#mask-4)"></path>
                    </g>
                    <g id="Group-9" transform="translate(0.000000, 7.522321)">
                        <mask id="mask-6" fill="white">
                            <use xlink:href="#path-5"></use>
                        </mask>
                        <g id="Clip-8"></g>
                        <path d="M11.5113778,21.4588357 L12.2854519,10.77205 C12.4810074,7.04440714 14.8814519,5.67426429 17.1743407,5.16826429 C17.1450074,4.95797857 17.102637,4.74440714 17.0488593,4.53083571 C16.8223407,4.11355 16.636563,3.67162143 16.5387852,3.19190714 C16.2079704,2.56926429 15.7663407,2.02055 15.2024889,1.66897857 C14.2784889,1.09069286 13.2192296,0.900121429 12.1469333,0.811407143 C11.2913778,1.57533571 10.1816,2.05340714 8.95285926,2.05340714 C7.73063704,2.05340714 6.62574815,1.57862143 5.77345185,0.822907143 C3.15300741,1.19912143 0.953007407,2.39019286 0.775377778,5.78433571 C0.775377778,5.78597857 -0.000325925926,16.48755 -0.000325925926,16.48755 C-0.000325925926,16.9146929 0.464118519,17.2629786 1.03122963,17.2629786 C1.54619259,17.2629786 2.01063704,16.9524786 2.06278519,16.5647643 L2.93952593,8.05640714 C2.99167407,7.82312143 3.19700741,7.66869286 3.50663704,7.66869286 C3.81626667,7.66869286 4.07374815,7.86255 4.07374815,8.09419286 L4.07374815,30.0246929 C4.07374815,30.6456929 4.74352593,31.1122643 5.5176,31.1122643 L5.82722963,31.1122643 C6.6013037,31.1122643 7.21893333,30.6851214 7.27108148,30.10355 L8.45745185,17.8314071 C8.49819259,17.6441214 8.69048889,17.51105 9.08322963,17.4584786 C9.31300741,17.51105 9.5053037,17.6441214 9.54604444,17.8314071 L10.7324148,30.10355 C10.784563,30.6851214 11.4038222,31.1122643 12.1762667,31.1122643 L12.4858963,31.1122643 C13.2599704,31.1122643 13.9297481,30.6456929 13.9297481,30.0246929 L13.9297481,23.0244786 C13.7472296,23.0754071 13.5581926,23.1164786 13.3561185,23.1164786 C12.3196741,23.1164786 11.5097481,22.4149786 11.5113778,21.4588357" id="Fill-7" fill="#FFFFFF" mask="url(#mask-6)"></path>
                    </g>
                    <g id="Group-12" transform="translate(4.888889, 0.308036)">
                        <mask id="mask-8" fill="white">
                            <use xlink:href="#path-7"></use>
                        </mask>
                        <g id="Clip-11"></g>
                        <path d="M1.56216296,7.54154286 C1.73327407,7.68118571 1.91579259,7.80275714 2.10808889,7.91282857 C2.68986667,8.24304286 3.34986667,8.44675714 4.06364444,8.44675714 C4.75297778,8.44675714 5.39016296,8.25454286 5.9589037,7.94732857 C6.16423704,7.83397143 6.35816296,7.70747143 6.54231111,7.56125714 C6.6954963,7.43968571 6.84542222,7.31318571 6.97905185,7.17025714 C7.66186667,6.44247143 8.0872,5.46825714 8.0872,4.39054286 C8.0872,2.15461429 6.2832,0.334328571 4.06364444,0.334328571 C1.84571852,0.334328571 0.0400888889,2.15461429 0.0400888889,4.39054286 C0.0400888889,5.46332857 0.463792593,6.43261429 1.14008889,7.15875714 C1.27045926,7.2984 1.41386667,7.42161429 1.56216296,7.54154286" id="Fill-10" fill="#FFFFFF" mask="url(#mask-8)"></path>
                    </g>
                    <path d="M29.2966667,29.8168786 C29.8637778,29.8168786 30.3282222,29.46695 30.3282222,29.04145 L29.5525185,18.3382357 C29.5117778,16.85145 28.8224444,15.0328071 27.5268889,14.2228786 C26.875037,13.81545 26.1514815,13.6133786 25.41,13.4868786 C25.2747407,13.4638786 25.1443704,13.4260929 25.0074815,13.4096643 C24.8722222,13.3915929 24.736963,13.3883071 24.6017037,13.3768071 C24.5577037,13.3718786 24.5137037,13.3685929 24.4697037,13.3653071 C23.6157778,14.1292357 22.506,14.6073071 21.2772593,14.6073071 C20.055037,14.6073071 18.9501481,14.1325214 18.0962222,13.3768071 C18.0815556,13.37845 18.0668889,13.37845 18.0505926,13.3817357 C17.9137037,13.40145 17.7833333,13.43595 17.6480741,13.4605929 C17.5111852,13.4852357 17.3791852,13.5180929 17.2471852,13.5493071 C16.024963,13.8302357 14.9640741,14.35595 14.2128148,15.2578786 C14.1231852,15.3646643 14.0205185,15.4566643 13.9422963,15.57495 C13.4697037,16.2780929 13.1600741,17.17345 13.0997778,18.3382357 C13.0997778,18.3398786 12.3240741,29.04145 12.3240741,29.04145 C12.3240741,29.46695 12.7885185,29.8168786 13.3556296,29.8168786 C13.5658519,29.8168786 13.7614074,29.7560929 13.9292593,29.6673786 C14.1248148,29.5655214 14.264963,29.42095 14.3334074,29.2500929 C14.3513333,29.2057357 14.3806667,29.1646643 14.3871852,29.1186643 L14.7440741,25.6423786 L15.012963,23.0351643 L15.2182963,21.0456643 L15.2639259,20.6103071 C15.2965185,20.46245 15.4073333,20.3655214 15.5507407,20.2998071 C15.6338519,20.2620214 15.716963,20.2225929 15.831037,20.2225929 C16.1406667,20.2225929 16.3981481,20.41645 16.3981481,20.6480929 L16.3981481,24.6353071 L16.3981481,25.0870929 L16.3981481,25.5142357 L16.3981481,42.5785929 C16.3981481,43.1995929 17.0679259,43.6645214 17.842,43.6645214 L18.1516296,43.6645214 C18.9240741,43.6645214 19.5433333,43.2390214 19.5954815,42.6558071 L20.7818519,30.3853071 C20.8225926,30.1980214 21.0148889,30.06495 21.4076296,30.0107357 C21.6374074,30.06495 21.8297037,30.1980214 21.8704444,30.3853071 L23.0568148,42.6558071 C23.108963,43.2390214 23.7282222,43.6645214 24.5006667,43.6645214 L24.8102963,43.6645214 C25.5843704,43.6645214 26.2541481,43.1995929 26.2541481,42.5785929 L26.2541481,25.5142357 L26.2541481,25.0870929 L26.2541481,24.6353071 L26.2541481,20.6480929 C26.2541481,20.41645 26.5116296,20.2225929 26.8212593,20.2225929 C26.9353333,20.2225929 27.0184444,20.2620214 27.1015556,20.2998071 C27.244963,20.3655214 27.3557778,20.46245 27.3883704,20.6103071 L27.434,21.0423786 L27.6377037,23.0335214 L27.9065926,25.6423786 L28.2651111,29.1186643 C28.2716296,29.1613786 28.2993333,29.1991643 28.3156296,29.2402357 C28.3824444,29.4160214 28.5242222,29.5638786 28.7214074,29.6673786 C28.8908889,29.7560929 29.0848148,29.8168786 29.2966667,29.8168786" id="Fill-13" fill="#FCFCFC"></path>
                    <path d="M17.815763,11.7622071 C17.9689481,12.0267071 18.1449481,12.2747786 18.3519111,12.4982071 C18.4822815,12.63785 18.6273185,12.7610643 18.7756148,12.8809929 C18.9467259,13.0189929 19.1276148,13.1422071 19.3215407,13.2522786 C19.9033185,13.5824929 20.5633185,13.7862071 21.2770963,13.7862071 C21.9648,13.7862071 22.6036148,13.5939929 23.1707259,13.2851357 C23.3776889,13.1734214 23.5716148,13.0469214 23.7541333,12.9007071 C23.9089481,12.7791357 24.0572444,12.6526357 24.1925037,12.5097071 C24.5070222,12.1745643 24.767763,11.7884929 24.9551704,11.3597071 C24.9747259,11.30385 24.9975407,11.2529214 25.0170963,11.1970643 C25.1947259,10.74035 25.3006519,10.2491357 25.3006519,9.72999286 C25.3006519,7.49406429 23.4950222,5.67377857 21.2770963,5.67377857 C19.0591704,5.67377857 17.2535407,7.49406429 17.2535407,9.72999286 C17.2535407,9.97970714 17.2845037,10.2212071 17.3268741,10.4594214 C17.4116148,10.9292786 17.5843556,11.3629929 17.815763,11.7622071" id="Fill-15" fill="#FFFFFF"></path>
                </g>
            </g>
        </g>
    </g>
</svg>